#!OML:ASF G:\JayActor3\Patient Classification 1\Patient 1\Session 6\male.ASF
:FULLY-SPECIFIED
:DEGREES
2353
root -1.04226 14.7071 -3.71296 728.54 -82.625 -713.736
lowerback 37.4909 1.99062 4.89236
upperback 16.7395 1.77047 -3.72447
thorax 0.132965 0.652259 -7.049
lowerneck 4.7166 13.8924 8.18742
upperneck -26.6164 15.836 -23.5798
head -5.88803 9.21988 -9.83834
rclavicle 1.90833e-014 3.49861e-014
rhumerus -28.6033 -9.85634 -84.1206
rradius 63.4481
rwrist 12.3006
rhand -28.7493 -1.80096
rfingers 7.12502
rthumb -2.10955 -31.7703
lclavicle 1.90833e-014 3.49861e-014
lhumerus -19.0142 -12.681 77.2681
lradius 60.9573
lwrist 19.6284
lhand -20.0388 4.56121
lfingers 7.12502
lthumb 6.30232 34.4475
rfemur -62.6643 -12.3336 28.6307
rtibia 71.7826
rfoot -30.89 -23.1242
rtoes 0.273513
lfemur -61.4271 10.8358 -20.1079
ltibia 65.2944
lfoot -14.6356 -2.05847
ltoes -7.83761
2354
root -1.04824 14.6977 -3.71015 728.392 -82.4585 -713.731
lowerback 37.5232 1.99423 4.90698
upperback 16.79 1.7725 -3.77858
thorax 0.179653 0.659265 -7.11567
lowerneck 4.78937 13.9469 8.18022
upperneck -26.5856 15.9197 -23.6152
head -5.87421 9.27153 -9.84898
rclavicle 3.45885e-014 -4.90998e-014
rhumerus -28.63 -9.80023 -84.1377
rradius 63.3223
rwrist 12.1476
rhand -28.4521 -1.86535
rfingers 7.12502
rthumb -1.8226 -31.8373
lclavicle 3.45885e-014 -4.90998e-014
lhumerus -18.7229 -12.698 77.1578
lradius 60.9702
lwrist 19.7428
lhand -20.0682 4.65925
lfingers 7.12502
lthumb 6.27393 34.5463
rfemur -62.563 -12.3963 28.5488
rtibia 71.9497
rfoot -30.9989 -23.2266
rtoes 0.164728
lfemur -60.8556 10.7149 -20.1298
ltibia 64.7803
lfoot -15.0689 -1.99317
ltoes -7.25361
2355
root -1.05405 14.6888 -3.70684 728.165 -82.2739 -713.64
lowerback 37.5537 1.98985 4.929
upperback 16.8417 1.76741 -3.83806
thorax 0.227603 0.663944 -7.18981
lowerneck 4.85245 13.9985 8.18766
upperneck -26.5573 15.9982 -23.662
head -5.85736 9.31993 -9.86472
rclavicle 1.47101e-014 -4.4329e-014
rhumerus -28.6561 -9.75393 -84.1625
rradius 63.2255
rwrist 11.9791
rhand -28.1988 -1.93752
rfingers 7.12502
rthumb -1.57791 -31.9114
lclavicle 1.47101e-014 -4.4329e-014
lhumerus -18.4248 -12.724 77.0365
lradius 61.0611
lwrist 19.8975
lhand -20.1322 4.79027
lfingers 7.12502
lthumb 6.2122 34.6792
rfemur -62.4652 -12.462 28.4475
rtibia 72.1159
rfoot -31.1044 -23.3444
rtoes 0.0478791
lfemur -60.3396 10.5766 -20.1972
ltibia 64.287
lfoot -15.5079 -1.84598
ltoes -6.85256
2356
root -1.05882 14.6798 -3.70386 727.973 -82.0685 -713.571
lowerback 37.5886 1.97997 4.9593
upperback 16.887 1.75992 -3.89757
thorax 0.267092 0.668107 -7.26769
lowerneck 4.89573 14.0446 8.20371
upperneck -26.5289 16.0685 -23.709
head -5.8373 9.36254 -9.87995
rclavicle -6.36111e-015 -5.36719e-015
rhumerus -28.6815 -9.7177 -84.1931
rradius 63.16
rwrist 11.8058
rhand -27.958 -2.02595
rfingers 7.12502
rthumb -1.34535 -32.0015
lclavicle -6.36111e-015 -5.36719e-015
lhumerus -18.1214 -12.7614 76.9093
lradius 61.2227
lwrist 20.0839
lhand -20.2359 4.93344
lfingers 7.12502
lthumb 6.11206 34.8253
rfemur -62.3887 -12.5142 28.3453
rtibia 72.2827
rfoot -31.2108 -23.4859
rtoes -0.0605574
lfemur -59.9528 10.4319 -20.2863
ltibia 63.9104
lfoot -15.8715 -1.6363
ltoes -6.67725
2357
root -1.06187 14.67 -3.70193 727.807 -81.8413 -713.508
lowerback 37.6379 1.96919 4.98279
upperback 16.9202 1.75172 -3.95353
thorax 0.288192 0.671045 -7.33807
lowerneck 4.91782 14.0846 8.21765
upperneck -26.508 16.1292 -23.7445
head -5.81897 9.3983 -9.89023
rclavicle 3.97569e-016 5.92378e-014
rhumerus -28.7052 -9.68621 -84.2271
rradius 63.1256
rwrist 11.6386
rhand -27.7247 -2.1308
rfingers 7.12502
rthumb -1.12003 -32.1076
lclavicle 3.97569e-016 5.92378e-014
lhumerus -17.8148 -12.805 76.7801
lradius 61.4519
lwrist 20.2721
lhand -20.3665 5.08085
lfingers 7.12502
lthumb 5.98594 34.9763
rfemur -62.3433 -12.5435 28.2423
rtibia 72.4516
rfoot -31.3251 -23.6485
rtoes -0.136068
lfemur -59.7283 10.2771 -20.3761
ltibia 63.6999
lfoot -16.0983 -1.41435
ltoes -6.63441
2358
root -1.06388 14.6599 -3.70139 727.702 -81.5883 -713.497
lowerback 37.7109 1.9573 5.00491
upperback 16.9414 1.74429 -4.00416
thorax 0.288634 0.673521 -7.40243
lowerneck 4.91998 14.116 8.22408
upperneck -26.4982 16.1777 -23.7567
head -5.80612 9.42526 -9.8917
rclavicle -6.04305e-014 4.73108e-014
rhumerus -28.7345 -9.66395 -84.2636
rradius 63.1228
rwrist 11.4845
rhand -27.4882 -2.24768
rfingers 7.12502
rthumb -0.891629 -32.2256
lclavicle -6.04305e-014 4.73108e-014
lhumerus -17.5068 -12.8497 76.6538
lradius 61.7437
lwrist 20.4309
lhand -20.4936 5.23111
lfingers 7.12502
lthumb 5.86331 35.13
rfemur -62.3106 -12.5599 28.1477
rtibia 72.6199
rfoot -31.4548 -23.8245
rtoes -0.181941
lfemur -59.6416 10.1137 -20.4395
ltibia 63.651
lfoot -16.2057 -1.2639
ltoes -6.60991
